
        <svg  xmlns="http://www.w3.org/2000/svg" xmlns:xlink="http://www.w3.org/1999/xlink" version="1.1" width="3230.769230769231" 
        height="1068.7871503332667" viewBox="0 0 3230.769230769231 1068.7871503332667">
			
			<g transform="scale(11.538461538461538) translate(10, 10)">
				<defs id="SvgjsDefs1703"></defs><g id="SvgjsG1704" featureKey="nameFeature-0" transform="matrix(1.558940074892318,0,0,1.558940074892318,-0.000002973442220482479,-18.58257027181745)" fill="#b290fc"><path d="M22.08 37.48 c3.72 -2.6 5.96 -6.92 5.96 -11.44 c0 -2.44 -0.64 -4.8 -1.88 -7 c-2.56 -4.4 -7.28 -7.04 -12.12 -7.04 c-2.52 0 -4.88 0.64 -7 1.88 c-4.32 2.52 -7.04 7.2 -7.04 12.16 c0 3.52 1.28 6.8 3.64 9.48 c2.36 2.52 5.56 4.12 8.96 4.48 l-0.96 -1.68 c-2.68 -0.48 -5.08 -1.84 -6.88 -3.8 c-2.12 -2.28 -3.32 -5.32 -3.32 -8.48 c0 -2.28 0.56 -4.4 1.68 -6.36 c2.24 -3.84 6.48 -6.24 10.92 -6.24 c2.2 0 4.28 0.56 6.24 1.68 c3.88 2.24 6.28 6.32 6.28 10.92 c0 4.04 -1.96 7.88 -5.28 10.24 l-1.84 1.2 l4.8 7.76 l0.72 1.2 l-4.84 0 l-6.64 -10.56 l-0.36 -0.04 c-1.56 -0.12 -3.04 -0.68 -4.44 -1.6 c-2.84 -1.88 -4.52 -4.88 -4.52 -8.2 c0 -1.8 0.44 -3.48 1.32 -5 c1.76 -3.04 5 -4.92 8.56 -4.92 c1.8 0 3.44 0.44 4.96 1.32 c3 1.76 4.84 5.12 4.84 8.6 s-1.68 6.6 -4.6 8.4 l-0.76 -1.24 c2.52 -1.56 4.04 -4.28 4.04 -7.2 c0 -1.56 -0.36 -3 -1.12 -4.32 c-1.48 -2.6 -4.24 -4.2 -7.4 -4.2 c-1.44 0 -2.84 0.4 -4.16 1.16 c-2.68 1.56 -4.32 4.36 -4.32 7.36 c0 1.48 0.4 2.88 1.16 4.2 c1.56 2.68 4.4 4.32 7.44 4.32 l6.84 10.72 l1.68 0 l-7.76 -12.24 l-0.44 0.08 l-0.44 0 c-1.24 0 -2.44 -0.32 -3.52 -0.96 c-2.2 -1.28 -3.52 -3.6 -3.52 -6.12 c0 -1.28 0.32 -2.48 0.96 -3.56 c1.24 -2.2 3.56 -3.48 6.08 -3.48 c1.28 0 2.48 0.32 3.56 0.92 c2.2 1.24 3.52 3.56 3.52 6.12 c0 2.72 -1.52 5.08 -3.92 6.32 l-0.76 0.32 l2.32 3.68 l0.6 -0.28 c3.72 -1.96 6 -5.8 6 -10 c0 -2.08 -0.48 -3.96 -1.44 -5.68 c-1.96 -3.36 -5.84 -5.64 -9.84 -5.64 c-2.04 0 -3.96 0.52 -5.68 1.52 c-3.48 2.04 -5.68 5.68 -5.68 9.8 c0 2.84 1.08 5.56 3 7.64 c1.72 1.92 4.2 3.2 6.92 3.56 l6.72 10.64 l8.24 0 l-6.12 -9.96 l0.6 -0.4 z M48.3 40 c-3.88 0 -6.84 -1 -8.8 -3 c-1.92 -1.92 -2.92 -4.76 -2.92 -8.12 l0 -16.84 l6.8 0 l0 16.84 c0 3.04 1.48 4.32 4.72 4.32 c3.16 0 4.88 -1.56 4.88 -4.32 l0 -16.84 l4.12 0 l0 16.84 c0 2.12 -0.56 4.12 -1.64 5.56 c-1.44 1.96 -3.72 2.88 -7.24 2.88 c-2.04 0 -3.68 -0.28 -4.92 -0.88 c-2.52 -1.16 -4.04 -3.76 -4.04 -7.56 l0 -14.28 l1.44 0 l0 14.28 c0 4.52 2.6 7 7.52 7 s7.44 -2.48 7.44 -7 l0 -15.4 l-1.24 0 l0 15.4 c0 3.52 -2.36 5.76 -6.32 5.76 c-4 0 -6.12 -2.04 -6.12 -5.76 l0 -15.4 l-3.96 0 l0 15.4 c0 6.36 3.52 9.68 10.28 9.68 c3.52 0 5.92 -0.84 7.56 -2.56 s2.52 -4.2 2.52 -7.12 l0 -16.84 l1.44 0 l0 16.84 c0 3.36 -1.04 6.16 -2.96 8.12 c-1.92 2 -4.76 3 -8.56 3 z M79.04 40 c-2.44 0 -4.76 -0.64 -6.96 -1.92 c-4.4 -2.52 -7.12 -7.16 -7.12 -12.12 c0 -2.48 0.64 -4.8 1.92 -7 c2.52 -4.32 7.24 -7.04 12.16 -7.04 c2.44 0 4.8 0.64 7 1.88 c4.4 2.56 7.04 7.32 7.04 12.16 c0 2.44 -0.64 4.72 -1.88 6.92 c-2.56 4.4 -7.2 7.12 -12.16 7.12 z M79.04 13.32 c-2.28 0 -4.4 0.56 -6.32 1.68 c-3.88 2.24 -6.28 6.36 -6.28 10.96 c0 2.28 0.56 4.4 1.68 6.32 c2.24 3.88 6.32 6.28 10.92 6.28 c2.28 0 4.4 -0.56 6.36 -1.68 c3.88 -2.24 6.28 -6.32 6.28 -10.92 c0 -2.28 -0.56 -4.4 -1.68 -6.36 c-2.24 -3.88 -6.48 -6.28 -10.96 -6.28 z M79.04 37.28 c-2 0 -3.88 -0.52 -5.68 -1.52 c-3.56 -2.04 -5.76 -5.76 -5.76 -9.8 c0 -2.04 0.52 -3.92 1.52 -5.68 c2.04 -3.52 5.64 -5.6 9.92 -5.6 c2.16 0 4.12 0.48 5.84 1.44 c3.44 1.92 5.44 5.52 5.44 9.84 c0 2.04 -0.48 3.92 -1.44 5.64 c-1.96 3.48 -5.8 5.68 -9.84 5.68 z M79.04 16.08 c-1.8 0 -3.44 0.44 -4.96 1.32 c-3.08 1.76 -4.96 4.92 -4.96 8.56 c0 1.76 0.44 3.4 1.36 4.92 c1.76 3.08 4.88 5 8.56 5 c1.8 0 3.44 -0.44 4.96 -1.36 c3 -1.76 4.92 -5.04 4.92 -8.56 c0 -1.8 -0.44 -3.48 -1.32 -5 c-1.76 -3.04 -5.08 -4.88 -8.56 -4.88 z M79.04 34.68 c-1.56 0 -3.04 -0.4 -4.36 -1.16 c-2.68 -1.56 -4.4 -4.52 -4.4 -7.56 c0 -1.56 0.4 -3.04 1.2 -4.4 c1.56 -2.72 4.32 -4.28 7.56 -4.28 c1.56 0 3 0.4 4.32 1.16 c2.68 1.56 4.24 4.28 4.24 7.52 c0 1.6 -0.36 3.04 -1.08 4.36 c-1.48 2.64 -4.32 4.36 -7.48 4.36 z M79.04 18.72 c-1.28 0 -2.48 0.32 -3.6 0.96 c-2.24 1.32 -3.68 3.68 -3.68 6.28 c0 1.28 0.32 2.48 0.96 3.56 c1.28 2.24 3.6 3.6 6.32 3.6 c1.32 0 2.56 -0.32 3.64 -0.96 c2.2 -1.28 3.52 -3.64 3.52 -6.2 c0 -1.32 -0.32 -2.52 -0.96 -3.64 c-1.28 -2.24 -3.64 -3.6 -6.2 -3.6 z M106.10000000000002 17.2 l9.56 0 l0 -3.8 l-17 0 l0 1.24 l15.64 0 l0 1.44 l-17.08 0 l0 -4.12 l19.88 0 l0 6.68 l-9.56 0 l0 18.72 l-1.44 0 l0 -20.16 z M103.42000000000002 18.64 l-6.2 0 l0 -1.44 l7.64 0 l0 21.32 l4 0 l0 -18.64 l1.44 0 l0 20.12 l-6.88 0 l0 -21.36 z M122.96000000000001 12.079999999999998 l1.44 0 l0 26.48 l15.32 0 l0 -4 l-11.28 0 l0 -3.84 l1.44 0 l0 2.4 l11.28 0 l0 6.88 l-18.2 0 l0 -27.92 z M125.68 12.079999999999998 l15.28 0 l0 6.84 l-9.6 0 l0 -1.44 l8.16 0 l0 -3.96 l-12.4 0 l0 11.56 l9.32 0 l0 1.44 l-10.76 0 l0 -14.44 z M125.68 27.8 l12.16 0 l0 -4 l-9.4 0 l0 -9.08 l9.68 0 l0 1.44 l-8.24 0 l0 6.2 l9.4 0 l0 6.88 l-12.16 0 l0 6.64 l11.2 0 l0 1.44 l-12.64 0 l0 -9.52 z M151.94 33.4 c1.96 0.88 3.68 1.32 5.12 1.32 c0.72 0 1.16 -0.04 1.36 -0.16 c0.92 -0.24 1.56 -0.76 1.96 -1.56 l0.04 -0.08 c0.2 -0.36 0.28 -0.8 0.28 -1.36 c0 -0.28 -0.08 -0.6 -0.24 -1 l-0.08 -0.16 c-0.52 -1.08 -1.68 -1.8 -3.8 -2.48 l-0.4 -0.12 l-0.12 -0.04 c-3.24 -0.96 -5.32 -2.48 -6.32 -4.6 c-0.4 -0.8 -0.6 -1.68 -0.6 -2.64 c0 -1 0.2 -1.96 0.6 -2.96 l0.08 -0.16 c0.92 -1.84 2.4 -3.04 4.36 -3.64 c1.4 -0.2 2.2 -0.32 2.4 -0.32 c2.72 0 5.88 1.12 9.44 3.32 l0.76 -1.24 c-3.88 -2.36 -7.24 -3.52 -10.16 -3.52 c-1.16 0 -2.12 0.12 -2.8 0.4 c-2.36 0.64 -4.12 2.08 -5.28 4.36 l-0.12 0.28 c-0.48 1.16 -0.72 2.32 -0.72 3.48 c0 1.24 0.24 2.32 0.72 3.28 c1.24 2.48 3.64 4.24 7.24 5.32 l0.48 0.16 c1.64 0.52 2.6 1.08 2.96 1.72 l0.04 0.08 c0.08 0.12 0.12 0.28 0.12 0.48 c0 0.36 -0.04 0.6 -0.16 0.8 c-0.28 0.64 -0.96 0.96 -2.04 0.96 c-1.72 0 -4.2 -0.88 -6.12 -2.12 l-0.6 -0.36 l-3.52 5.68 l0.6 0.36 c2.84 1.92 6.6 3.12 9.64 3.12 c1 0 1.92 -0.12 2.76 -0.36 c2.36 -0.68 4.12 -2.16 5.28 -4.4 l0.16 -0.28 c0.48 -1.24 0.72 -2.4 0.72 -3.48 c0 -0.96 -0.32 -2.16 -0.92 -3.64 c-1.08 -2.16 -3.36 -3.8 -6.92 -4.92 l-0.56 -0.16 c-1.12 -0.36 -1.88 -0.72 -2.24 -1 c-0.48 -0.4 -0.76 -0.68 -0.88 -0.84 l-0.08 -0.44 c0 -0.4 0.08 -0.76 0.28 -1.04 c0.32 -0.6 0.64 -0.76 1.92 -0.76 c1.72 0 4.2 0.88 6.12 2.12 l0.6 0.36 l2.16 -3.44 l-0.64 -0.36 c-2.44 -1.6 -5.76 -2.72 -8.2 -2.72 c-1.08 0 -1.76 0.08 -2.12 0.28 c-1.64 0.48 -2.88 1.52 -3.68 3.08 c-0.36 0.68 -0.52 1.48 -0.52 2.48 c0 0.76 0.16 1.48 0.48 2.16 c0.84 1.8 2.72 3.12 5.64 4 l0.52 0.16 l1.08 0.4 c0.6 0.24 1.24 0.56 1.96 0.96 c1.28 0.76 1.92 1.84 1.92 3.28 c0 0.8 -0.2 1.56 -0.56 2.24 c-0.84 1.48 -2.28 2.24 -4.28 2.24 c-1.36 0 -3.28 -0.52 -5.76 -1.52 l-0.68 1.16 l-0.04 0.08 c2.28 1.16 4.44 1.72 6.52 1.72 c1.16 0 2.24 -0.24 3.2 -0.72 c1.88 -0.92 3.04 -2.84 3.04 -5.24 c0 -3.8 -2.92 -4.92 -6 -6 l-0.52 -0.16 c-2.52 -0.76 -4.08 -1.8 -4.72 -3.2 c-0.24 -0.48 -0.36 -1 -0.36 -1.6 c0 -0.76 0.12 -1.36 0.4 -1.88 c0.64 -1.16 1.56 -1.92 2.76 -2.28 l1.6 -0.2 c2.12 0 4.44 0.72 6.96 2.12 l-0.64 1 c-2.6 -1.28 -4.68 -1.92 -6.2 -1.92 c-0.76 0 -1.2 0.04 -1.4 0.16 c-0.88 0.24 -1.52 0.76 -1.96 1.6 l-0.04 0.08 c-0.2 0.36 -0.28 0.84 -0.28 1.44 c0 0.44 0.08 0.76 0.2 0.96 c0.52 1.08 1.88 1.96 4.04 2.6 l0.52 0.16 l1 0.32 c0.12 0.04 0.76 0.32 1.92 0.88 c1.56 0.88 2.68 2 3.32 3.32 c0.4 0.8 0.6 1.68 0.6 2.64 c0 1.16 -0.2 2.16 -0.64 3 l-0.08 0.16 c-0.92 1.84 -2.4 3.04 -4.36 3.64 c-1.4 0.2 -2.2 0.32 -2.4 0.32 c-2.04 0 -4.68 -0.76 -7.12 -1.92 l-1.12 -0.6 l2 -3.24 z"></path></g><g id="SvgjsG1705" featureKey="sloganFeature-0" transform="matrix(0.4570536685520526,0,0,0.4570536685520526,49.803604085349555,63.39787911957052)" fill="#6b21a8"><path d="M4.1211 20 l-3.6914 -14.111 l3.0469 0 l2.7539 10.684 l3.1543 -10.684 l2.4707 0 l3.1348 10.684 l2.7832 -10.684 l3.0371 0 l-3.6914 14.111 l-3.7695 0 l-2.7344 -8.7207 l-2.7246 8.7207 l-3.7695 0 z M39.7607703125 20.19531 c-4.1504 0 -7.2168 -2.832 -7.2168 -7.2559 c0 -4.4336 3.0664 -7.2461 7.2168 -7.2461 c4.1406 0 7.207 2.8125 7.207 7.2461 c0 4.4238 -3.0664 7.2559 -7.207 7.2559 z M39.7607703125 17.5098 c2.4316 0 4.2969 -1.709 4.2969 -4.5703 c0 -2.8516 -1.8652 -4.5508 -4.2969 -4.5508 s-4.2969 1.6992 -4.2969 4.5508 c0 2.8613 1.8652 4.5703 4.2969 4.5703 z M67.55855 20 l-3.6719 -6.2109 l-0.84961 0 l0 6.2109 l-2.9297 0 l0 -14.111 l5.1172 0 c3.1934 0 4.541 1.8848 4.541 4.2188 c0 1.8945 -1.0742 3.125 -2.9883 3.5352 l4.248 6.3574 l-3.4668 0 z M63.03715 8.32 l0 3.3691 l1.7285 0 c1.5625 0 2.1973 -0.66406 2.1973 -1.6797 c0 -1.0059 -0.63477 -1.6895 -2.1973 -1.6895 l-1.7285 0 z M83.6181921875 20 l0 -14.111 l5.1074 0 c4.502 0 6.7285 2.832 6.7285 7.0508 c0 4.2285 -2.2266 7.0605 -6.7285 7.0605 l-5.1074 0 z M86.5478921875 17.4121 l2.0313 0 c2.5977 0 3.7891 -1.6211 3.7891 -4.4727 s-1.1914 -4.4727 -3.7891 -4.4727 l-2.0313 0 l0 8.9453 z M113.33010625 20.19531 c-3.0273 0 -5.3906 -1.4551 -5.8203 -4.1016 l3.0273 -0.69336 c0.19531 1.582 1.3574 2.4023 2.9102 2.4023 c1.1914 0 2.1387 -0.52734 2.1289 -1.7188 c-0.0097656 -1.3281 -1.5723 -1.748 -3.291 -2.2754 c-2.0703 -0.64453 -4.2871 -1.4063 -4.2871 -4.0039 c0 -2.627 2.1484 -4.1113 4.9805 -4.1113 c2.4805 0 4.9805 1.0059 5.5469 3.7109 l-2.832 0.70313 c-0.26367 -1.4063 -1.2109 -2.0215 -2.5391 -2.0215 c-1.1816 0 -2.1875 0.48828 -2.1875 1.6504 c0 1.084 1.3867 1.4453 2.9883 1.9238 c2.1289 0.64453 4.6484 1.4648 4.6484 4.2773 c0 2.998 -2.5098 4.2578 -5.2734 4.2578 z M153.64260625 20.19531 c-4.1504 0 -7.2168 -2.832 -7.2168 -7.2559 c0 -4.4336 3.0664 -7.2461 7.2168 -7.2461 c4.1406 0 7.207 2.8125 7.207 7.2461 c0 4.4238 -3.0664 7.2559 -7.207 7.2559 z M153.64260625 17.5098 c2.4316 0 4.2969 -1.709 4.2969 -4.5703 c0 -2.8516 -1.8652 -4.5508 -4.2969 -4.5508 s-4.2969 1.6992 -4.2969 4.5508 c0 2.8613 1.8652 4.5703 4.2969 4.5703 z M182.30908593750002 8.467 l-5.3711 0 l0 3.2031 l4.6387 0 l0 2.5488 l-4.6387 0 l0 5.7813 l-2.9492 0 l0 -14.111 l8.3203 0 l0 2.5781 z M213.1884828125 20 l-3.6914 -14.111 l3.0469 0 l2.7539 10.684 l3.1543 -10.684 l2.4707 0 l3.1348 10.684 l2.7832 -10.684 l3.0371 0 l-3.6914 14.111 l-3.7695 0 l-2.7344 -8.7207 l-2.7246 8.7207 l-3.7695 0 z M242.578153125 20 l0 -14.111 l2.9297 0 l0 14.111 l-2.9297 0 z M264.2822546875 20.19531 c-3.0273 0 -5.3906 -1.4551 -5.8203 -4.1016 l3.0273 -0.69336 c0.19531 1.582 1.3574 2.4023 2.9102 2.4023 c1.1914 0 2.1387 -0.52734 2.1289 -1.7188 c-0.0097656 -1.3281 -1.5723 -1.748 -3.291 -2.2754 c-2.0703 -0.64453 -4.2871 -1.4063 -4.2871 -4.0039 c0 -2.627 2.1484 -4.1113 4.9805 -4.1113 c2.4805 0 4.9805 1.0059 5.5469 3.7109 l-2.832 0.70313 c-0.26367 -1.4063 -1.2109 -2.0215 -2.5391 -2.0215 c-1.1816 0 -2.1875 0.48828 -2.1875 1.6504 c0 1.084 1.3867 1.4453 2.9883 1.9238 c2.1289 0.64453 4.6484 1.4648 4.6484 4.2773 c0 2.998 -2.5098 4.2578 -5.2734 4.2578 z M282.70510625 20 l0 -14.111 l5.1074 0 c4.502 0 6.7285 2.832 6.7285 7.0508 c0 4.2285 -2.2266 7.0605 -6.7285 7.0605 l-5.1074 0 z M285.63480625 17.4121 l2.0313 0 c2.5977 0 3.7891 -1.6211 3.7891 -4.4727 s-1.1914 -4.4727 -3.7891 -4.4727 l-2.0313 0 l0 8.9453 z M313.9795203125 20.19531 c-4.1504 0 -7.2168 -2.832 -7.2168 -7.2559 c0 -4.4336 3.0664 -7.2461 7.2168 -7.2461 c4.1406 0 7.207 2.8125 7.207 7.2461 c0 4.4238 -3.0664 7.2559 -7.207 7.2559 z M313.9795203125 17.5098 c2.4316 0 4.2969 -1.709 4.2969 -4.5703 c0 -2.8516 -1.8652 -4.5508 -4.2969 -4.5508 s-4.2969 1.6992 -4.2969 4.5508 c0 2.8613 1.8652 4.5703 4.2969 4.5703 z M350.498 20 l-2.9199 0 l-0.92773 -10.635 l-3.5742 10.635 l-1.8945 0 l-3.5742 -10.635 l-0.9375 10.635 l-2.9297 0 l1.1816 -14.111 l4.1797 0 l3.0078 8.8574 l3.0469 -8.8574 l4.1797 0 z"></path></g>
			</g>
		</svg>
	